<svg version="1.1" id="Layer_1" xmlns="http://www.w3.org/2000/svg" xmlns:xlink="http://www.w3.org/1999/xlink" x="0px" y="0px"
	 width="100%" viewBox="0 0 512 512" enable-background="new 0 0 512 512" xml:space="preserve">
<path fill="#000000" opacity="1.000000" stroke="none" 
	d="
M350.000000,513.000000 
	C233.361679,513.000000 117.223351,513.000000 1.042510,513.000000 
	C1.042510,342.403320 1.042510,171.806625 1.042510,1.104965 
	C171.554993,1.104965 342.110077,1.104965 512.832581,1.104965 
	C512.832581,171.666534 512.832581,342.333252 512.832581,513.000000 
	C458.806549,513.000000 404.653290,513.000000 350.000000,513.000000 
M420.768768,385.769714 
	C424.111938,383.109497 425.420807,379.708435 425.057129,375.413910 
	C424.736725,371.630493 424.890594,367.806946 424.979736,363.073608 
	C424.930817,355.714905 424.881897,348.356171 424.978271,340.131134 
	C425.663727,334.599060 424.233276,330.289001 418.520721,328.097656 
	C415.815155,327.059784 413.125824,325.796265 410.734619,324.182373 
	C408.955658,322.981689 407.110168,321.302002 406.262970,319.403442 
	C403.382111,312.947144 400.687164,306.382843 398.392487,299.697968 
	C396.554871,294.344452 391.880432,289.009521 397.852997,282.997742 
	C400.455170,281.903503 402.998474,280.629547 405.672150,279.753571 
	C410.754883,278.088379 415.912201,276.650818 421.818420,275.009735 
	C431.807312,272.165802 440.649261,267.075073 449.674347,260.839203 
	C450.789886,259.888916 452.017273,259.041656 453.002777,257.971619 
	C459.403473,251.022263 465.751526,244.024460 472.748108,236.774673 
	C474.051727,235.132263 475.543335,233.604202 476.624481,231.826508 
	C480.199951,225.947205 483.627289,219.977814 487.767822,213.709793 
	C493.757812,199.524094 497.728088,184.938522 497.047180,169.333099 
	C496.771423,163.013687 495.054199,160.774002 488.914551,161.079376 
	C484.236572,161.312057 479.556824,162.125122 474.949738,163.041260 
	C464.822540,165.055115 455.059418,168.047379 446.313843,175.159698 
	C438.945068,180.965881 431.978882,187.128632 427.311829,196.164261 
	C421.383545,204.756760 413.490173,210.938950 403.223114,215.025894 
	C391.456055,219.607452 379.313293,219.856155 366.220978,218.003403 
	C357.529205,214.694168 348.862671,211.316574 340.138092,208.096191 
	C332.471985,205.266525 324.740967,202.612885 316.678680,199.213638 
	C313.002625,198.140686 309.370270,196.874054 305.641876,196.033081 
	C296.453949,193.960648 287.221924,192.083694 277.110931,190.012985 
	C269.200317,189.348099 261.299408,188.476273 253.375046,188.103455 
	C249.257370,187.909714 245.098221,188.597626 240.034103,188.985123 
	C228.690216,189.712265 217.346344,190.439392 205.188324,191.036667 
	C199.270035,193.128204 197.897125,192.631516 195.127029,187.579788 
	C194.604202,186.626297 193.794968,185.829880 193.003998,184.229828 
	C187.006165,173.507919 180.864136,162.863571 175.046387,152.044830 
	C167.492203,137.996964 158.008514,125.630516 143.959396,117.669998 
	C137.698120,114.122223 132.259415,110.753731 128.795181,103.818420 
	C123.990654,94.199883 117.605103,85.379135 112.064774,76.116150 
	C109.795059,72.321365 106.165977,72.538872 102.981049,73.205643 
	C100.839584,73.653969 97.814034,75.751205 97.406242,77.600700 
	C95.560638,85.971390 94.505798,94.516426 92.827728,103.693924 
	C91.747993,105.122452 90.934731,107.387321 89.541298,107.831276 
	C84.188431,109.536743 78.667877,110.739937 73.174500,111.972878 
	C68.604233,112.998642 65.254562,115.286423 63.250988,120.231224 
	C57.166767,127.464622 54.597775,137.667831 44.216316,141.994888 
	C42.754013,142.671677 41.340130,143.494110 39.820728,143.999115 
	C34.292324,145.836624 32.586960,149.588226 32.885120,155.298630 
	C33.326683,163.755493 33.613628,172.310410 32.818798,180.715027 
	C32.109386,188.216431 35.614510,192.880478 40.705349,197.161743 
	C41.692383,197.991791 42.957829,198.512238 43.872471,199.403671 
	C56.203846,211.421982 70.786171,220.156815 85.694435,228.477142 
	C87.252861,229.346909 88.649696,231.731323 88.855751,233.555954 
	C89.356621,237.991196 89.112244,242.510620 89.022667,247.835922 
	C90.682938,257.880157 91.602654,268.125885 94.261414,277.898499 
	C96.062050,284.516968 93.839119,287.915680 88.255791,291.226135 
	C80.152061,297.774384 72.048325,304.322601 63.325035,311.161682 
	C58.378616,315.779755 53.473053,320.442810 48.465912,324.994080 
	C46.431305,326.843475 44.175716,328.449738 41.270618,330.248474 
	C35.514462,332.188843 29.694174,333.961975 24.027321,336.135223 
	C20.865780,337.347687 17.025574,338.304413 17.021524,343.928223 
	C17.014481,352.540283 16.953869,361.152771 17.020926,369.764252 
	C17.059782,374.753937 19.215519,376.950989 24.169060,376.974182 
	C32.445679,377.012970 40.723057,376.888763 49.910892,376.978790 
	C58.527782,378.215118 65.818054,375.250488 73.139206,369.940308 
	C81.329346,365.507751 89.519493,361.075226 98.259918,356.212555 
	C106.187881,351.843781 114.115845,347.475006 122.768318,343.003143 
	C127.396729,340.477203 132.025146,337.951263 137.166901,335.145142 
	C137.166901,343.444092 137.166901,351.221497 137.020874,359.916016 
	C137.020874,363.847351 137.020874,367.778656 137.020874,371.304718 
	C133.365631,373.332581 130.159073,375.111481 126.205879,376.998413 
	C120.849182,379.590851 119.288666,383.728333 121.873489,389.355438 
	C124.373619,394.798065 126.898338,400.264618 129.957932,405.395264 
	C130.981750,407.112183 133.637421,408.725067 135.632721,408.835175 
	C142.400711,409.208771 149.206985,408.888794 156.924393,408.978882 
	C159.752869,408.985870 162.581345,408.998169 165.409821,408.998901 
	C175.326447,409.001404 176.066223,408.442780 179.095886,398.764465 
	C179.285553,398.158569 179.584625,397.586914 180.152985,396.331116 
	C181.386703,393.712799 182.738480,391.142639 183.830276,388.466431 
	C186.323547,382.355042 188.689545,376.191711 191.752716,369.711639 
	C193.962372,364.521393 196.172012,359.331146 198.335861,354.248474 
	C201.679504,354.897552 204.820099,355.507202 208.364716,356.800781 
	C221.122589,359.297882 233.871307,361.882690 247.926987,360.978241 
	C253.395798,360.985535 258.869568,360.850830 264.332001,361.041046 
	C269.546814,361.222656 274.749817,361.742737 280.084106,362.576630 
	C280.268799,362.873352 280.535797,363.028320 280.680084,363.792419 
	C279.357300,364.195007 278.055145,364.692963 276.708282,364.983917 
	C270.421753,366.342163 263.740723,366.657593 258.250092,371.993073 
	C255.493668,375.659943 251.240112,378.988647 250.318146,383.069916 
	C248.787308,389.846466 249.039352,397.118347 249.269241,404.157776 
	C249.371048,407.275238 252.187958,409.027069 255.612259,409.005432 
	C267.741577,408.928802 279.871124,408.887817 292.927917,408.978210 
	C304.953308,408.985962 316.978882,409.021759 329.003937,408.962372 
	C330.352234,408.955719 331.697906,408.409821 333.539429,407.989929 
	C333.699036,407.931519 333.858673,407.873108 334.520203,407.883636 
	C334.618286,407.597198 334.716370,407.310760 335.113342,406.386078 
	C341.091064,400.294495 347.068787,394.202942 353.724640,388.000397 
	C355.272217,386.752136 356.819794,385.503906 358.716339,384.671631 
	C358.838623,384.805084 358.960876,384.938507 359.009674,385.675598 
	C358.990845,386.080444 358.972015,386.485260 358.306030,387.216217 
	C356.757446,390.421570 355.067871,393.567627 353.689514,396.844574 
	C350.758728,403.812439 354.160248,409.000153 361.568878,408.989136 
	C367.379944,408.980469 373.190918,408.888153 379.927643,408.979095 
	C382.714325,408.985962 385.532898,408.725372 388.281403,409.052673 
	C395.020172,409.854980 400.423035,407.961945 404.730530,401.788696 
	C409.864014,396.541687 414.997498,391.294678 420.768768,385.769714 
z"/>
<path fill="#79C1DA" opacity="1.000000" stroke="none" 
	d="
M89.168060,246.996124 
	C89.112244,242.510620 89.356621,237.991196 88.855751,233.555954 
	C88.649696,231.731323 87.252861,229.346909 85.694435,228.477142 
	C70.786171,220.156815 56.203846,211.421982 43.872471,199.403671 
	C42.957829,198.512238 41.692383,197.991791 40.705349,197.161743 
	C35.614510,192.880478 32.109386,188.216431 32.818798,180.715027 
	C33.613628,172.310410 33.326683,163.755493 32.885120,155.298630 
	C32.586960,149.588226 34.292324,145.836624 39.820728,143.999115 
	C41.340130,143.494110 42.754013,142.671677 44.745411,142.242157 
	C49.219830,146.341827 53.165150,150.194214 56.945015,154.371750 
	C54.186752,155.965408 51.593945,157.233902 49.000042,158.502930 
	C49.000042,165.081589 48.951954,171.405014 49.041599,177.726471 
	C49.059025,178.955353 49.238586,180.514496 49.985394,181.341614 
	C52.879616,184.547028 55.795784,187.810303 59.133423,190.523529 
	C70.379501,199.665558 82.554779,207.364410 95.430038,214.086182 
	C99.187378,216.047806 104.011627,219.812408 104.574638,223.350784 
	C106.548904,235.758530 106.878204,248.428009 107.494759,260.936798 
	C103.067116,257.378479 99.044083,253.797882 94.853783,250.425095 
	C93.145370,249.050003 91.074196,248.125595 89.168060,246.996124 
z"/>
<path fill="#9EAEE1" opacity="1.000000" stroke="none" 
	d="
M93.166214,102.998688 
	C94.505798,94.516426 95.560638,85.971390 97.406242,77.600700 
	C97.814034,75.751205 100.839584,73.653969 102.981049,73.205643 
	C106.165977,72.538872 109.795059,72.321365 112.064774,76.116150 
	C117.605103,85.379135 123.990654,94.199883 128.795181,103.818420 
	C132.259415,110.753731 137.698120,114.122223 143.959396,117.669998 
	C158.008514,125.630516 167.492203,137.996964 175.046387,152.044830 
	C180.864136,162.863571 187.006165,173.507919 192.703445,184.555939 
	C190.379166,183.531876 188.085876,182.457245 186.376846,180.785370 
	C177.405014,172.008774 168.615082,163.046478 159.669006,154.243134 
	C158.324173,152.919754 156.489395,152.094254 154.566986,150.904678 
	C146.824554,140.348450 137.649841,132.190536 125.443336,127.610390 
	C123.252556,126.788368 121.328682,124.495949 119.942284,122.437454 
	C116.373161,117.138069 113.174545,111.589149 109.624138,105.808189 
	C108.925804,109.002533 108.379753,111.500320 107.481506,113.984192 
	C105.420845,112.814804 103.624908,111.768150 102.022758,110.480392 
	C99.011475,108.060028 96.112114,105.500404 93.166214,102.998688 
z"/>
<path fill="#E389ED" opacity="1.000000" stroke="none" 
	d="
M446.953735,174.890930 
	C455.059418,168.047379 464.822540,165.055115 474.949738,163.041260 
	C479.556824,162.125122 484.236572,161.312057 488.914551,161.079376 
	C495.054199,160.774002 496.771423,163.013687 497.047180,169.333099 
	C497.728088,184.938522 493.757812,199.524094 487.092987,213.816254 
	C482.264099,210.244461 478.110046,206.566177 473.977051,202.498413 
	C476.057098,194.885986 478.116058,187.663055 480.395996,179.664948 
	C471.427917,180.690948 464.549683,183.821396 457.937439,187.543671 
	C454.231262,183.106598 450.592499,178.998764 446.953735,174.890930 
z"/>
<path fill="#71C5D9" opacity="1.000000" stroke="none" 
	d="
M207.960693,356.116852 
	C204.820099,355.507202 201.679504,354.897552 198.335861,354.248474 
	C196.172012,359.331146 193.962372,364.521393 191.116364,369.734558 
	C186.284851,366.158356 182.089691,362.559204 177.946808,358.588196 
	C179.251846,355.200439 180.504608,352.184570 181.948975,348.707397 
	C172.135803,344.092651 162.589310,339.603333 152.875092,334.816833 
	C147.925232,329.966125 143.060791,325.494049 138.418533,320.802124 
	C137.249847,319.620941 136.792679,317.735779 136.345154,316.005920 
	C140.950500,312.841125 145.471634,311.786438 150.389206,314.143677 
	C163.597122,320.474792 176.796158,326.824432 190.013351,333.518890 
	C194.454681,338.850281 198.984283,343.743347 203.259933,348.849060 
	C205.098328,351.044342 206.409821,353.680817 207.960693,356.116852 
z"/>
<path fill="#ACA6E3" opacity="1.000000" stroke="none" 
	d="
M424.833008,340.997467 
	C424.881897,348.356171 424.930817,355.714905 424.555237,363.522919 
	C422.426178,362.821259 420.620087,361.793854 419.038116,360.493805 
	C415.685181,357.738373 412.449036,354.840729 409.092926,351.553772 
	C410.337006,344.451843 407.712830,340.500427 401.170349,338.495911 
	C397.359100,337.328217 393.909454,335.294922 392.350159,330.929932 
	C389.633362,323.324646 386.526215,315.858795 383.344025,307.724396 
	C380.276184,312.868652 377.554260,317.432831 374.504425,321.933777 
	C370.079041,318.233459 365.981598,314.596375 361.940796,310.593689 
	C365.652344,303.779083 369.307190,297.330048 373.120667,291.181488 
	C389.011597,307.311554 404.721222,323.163910 420.526581,338.920258 
	C421.592743,339.983124 423.380737,340.321899 424.833008,340.997467 
z"/>
<path fill="#96B2DF" opacity="1.000000" stroke="none" 
	d="
M358.367371,384.255676 
	C356.819794,385.503906 355.272217,386.752136 353.223999,387.756714 
	C348.865601,383.874207 345.007843,380.235352 341.346375,376.305176 
	C346.320374,371.326752 351.098022,366.639648 356.223083,362.013306 
	C358.118927,363.287842 359.778534,364.384949 361.196472,365.735687 
	C367.208618,371.463135 373.149017,377.265869 379.060547,383.410400 
	C377.650696,386.709900 376.295959,389.640137 374.610626,393.285400 
	C381.014801,392.079437 387.252045,395.304871 391.978821,390.250488 
	C394.600281,395.954224 398.063629,400.373016 404.117767,402.043274 
	C400.423035,407.961945 395.020172,409.854980 388.281403,409.052673 
	C385.532898,408.725372 382.714325,408.985962 379.400726,408.578186 
	C372.233612,401.081573 365.593414,393.985840 358.953186,386.890106 
	C358.972015,386.485260 358.990845,386.080444 359.322021,385.265320 
	C359.655273,384.320435 359.676147,383.785767 359.697021,383.251129 
	C359.253815,383.585968 358.810608,383.920837 358.367371,384.255676 
z"/>
<path fill="#68CAD7" opacity="1.000000" stroke="none" 
	d="
M136.008530,316.174133 
	C136.792679,317.735779 137.249847,319.620941 138.418533,320.802124 
	C143.060791,325.494049 147.925232,329.966125 152.856689,335.277832 
	C152.948395,347.690521 152.890762,359.344971 152.505188,370.935303 
	C149.410751,368.373413 146.741364,365.755341 143.845047,363.418518 
	C141.776749,361.749817 139.403854,360.458588 137.166901,358.998901 
	C137.166901,351.221497 137.166901,343.444092 137.166901,335.145142 
	C132.025146,337.951263 127.396729,340.477203 122.261093,342.740784 
	C117.883133,338.509369 114.012405,334.540314 110.361404,330.271423 
	C119.056938,325.372467 127.532738,320.773285 136.008530,316.174133 
z"/>
<path fill="#9AB0E0" opacity="1.000000" stroke="none" 
	d="
M154.881271,151.038437 
	C156.489395,152.094254 158.324173,152.919754 159.669006,154.243134 
	C168.615082,163.046478 177.405014,172.008774 186.376846,180.785370 
	C188.085876,182.457245 190.379166,183.531876 192.760376,184.921524 
	C193.794968,185.829880 194.604202,186.626297 195.127029,187.579788 
	C197.897125,192.631516 199.270035,193.128204 205.682892,191.414719 
	C207.455368,193.032440 208.860031,194.167435 209.986771,195.531921 
	C213.054764,199.247269 216.005280,203.059616 218.574677,206.907898 
	C209.645050,207.654175 201.148621,208.642212 192.637451,208.791885 
	C190.297272,208.833023 186.963287,206.962326 185.708282,204.954483 
	C179.189209,194.524780 173.132690,183.802490 167.039749,173.111069 
	C162.881104,165.813828 158.926880,158.400101 154.881271,151.038437 
z"/>
<path fill="#79C1DA" opacity="1.000000" stroke="none" 
	d="
M292.000580,408.833344 
	C279.871124,408.887817 267.741577,408.928802 255.612259,409.005432 
	C252.187958,409.027069 249.371048,407.275238 249.269241,404.157776 
	C249.039352,397.118347 248.787308,389.846466 250.318146,383.069916 
	C251.240112,378.988647 255.493668,375.659943 258.664185,372.285217 
	C262.756317,376.399658 266.434418,380.221985 269.966949,384.368774 
	C268.282257,387.116791 266.743134,389.540344 264.440186,393.166565 
	C270.831635,393.166565 275.416351,393.166565 280.062073,393.504089 
	C281.770752,396.082916 283.350189,398.378662 285.083099,400.552063 
	C287.324829,403.363586 289.689087,406.077423 292.000580,408.833344 
z"/>
<path fill="#BB9EE6" opacity="1.000000" stroke="none" 
	d="
M317.038605,199.881500 
	C324.740967,202.612885 332.471985,205.266525 340.138092,208.096191 
	C348.862671,211.316574 357.529205,214.694168 366.671936,218.422455 
	C370.281525,222.593887 373.525726,226.278839 376.560028,230.129211 
	C377.924072,231.860092 378.868683,233.921494 379.548462,235.908188 
	C365.245453,236.427246 352.449768,232.375793 339.987915,226.481201 
	C338.909485,224.513824 338.066040,222.685974 336.744690,221.320572 
	C331.318512,215.713394 325.693298,210.298798 320.267151,204.691559 
	C318.945496,203.325775 318.101959,201.497253 317.038605,199.881500 
z"/>
<path fill="#71C5D9" opacity="1.000000" stroke="none" 
	d="
M89.095367,247.416031 
	C91.074196,248.125595 93.145370,249.050003 94.853783,250.425095 
	C99.044083,253.797882 103.067116,257.378479 107.680328,261.302246 
	C109.801071,269.645538 111.678642,277.520325 112.868919,285.497650 
	C113.397591,289.040894 114.043350,293.150360 110.312683,295.941681 
	C107.184456,298.282227 104.126778,300.717041 100.976471,302.764771 
	C96.900925,298.599670 92.886780,294.779938 88.872627,290.960205 
	C93.839119,287.915680 96.062050,284.516968 94.261414,277.898499 
	C91.602654,268.125885 90.682938,257.880157 89.095367,247.416031 
z"/>
<path fill="#B4A2E5" opacity="1.000000" stroke="none" 
	d="
M424.905640,340.564301 
	C423.380737,340.321899 421.592743,339.983124 420.526581,338.920258 
	C404.721222,323.163910 389.011597,307.311554 373.260620,290.858337 
	C376.789398,284.476013 380.336884,278.717346 384.199280,273.101990 
	C386.197693,274.518280 387.897186,275.770691 389.560883,277.068970 
	C392.091278,279.043579 394.596832,281.050018 397.112946,283.042938 
	C391.880432,289.009521 396.554871,294.344452 398.392487,299.697968 
	C400.687164,306.382843 403.382111,312.947144 406.262970,319.403442 
	C407.110168,321.302002 408.955658,322.981689 410.734619,324.182373 
	C413.125824,325.796265 415.815155,327.059784 418.520721,328.097656 
	C424.233276,330.289001 425.663727,334.599060 424.905640,340.564301 
z"/>
<path fill="#B4A2E5" opacity="1.000000" stroke="none" 
	d="
M316.858643,199.547562 
	C318.101959,201.497253 318.945496,203.325775 320.267151,204.691559 
	C325.693298,210.298798 331.318512,215.713394 336.744690,221.320572 
	C338.066040,222.685974 338.909485,224.513824 339.624512,226.447708 
	C332.286560,223.840515 325.409485,220.596451 318.278076,218.070435 
	C309.631927,215.007904 300.770935,212.551971 291.987793,209.481354 
	C288.330078,204.934250 284.543976,200.852173 281.113525,196.490402 
	C279.687347,194.677063 279.020050,192.266891 278.007629,190.128143 
	C287.221924,192.083694 296.453949,193.960648 305.641876,196.033081 
	C309.370270,196.874054 313.002625,198.140686 316.858643,199.547562 
z"/>
<path fill="#8AB8DD" opacity="1.000000" stroke="none" 
	d="
M280.885101,363.041595 
	C280.535797,363.028320 280.268799,362.873352 279.980408,361.997559 
	C277.880005,359.074615 275.885590,356.728760 273.886017,354.387299 
	C271.259766,351.312103 268.629456,348.240356 266.464172,345.094452 
	C269.921478,345.014557 272.923065,345.140656 275.907776,344.970276 
	C280.908875,344.684814 285.544708,345.110474 289.845886,348.289612 
	C295.834564,352.716003 301.977264,357.003632 308.411591,360.734009 
	C313.044617,363.420135 313.411072,367.250183 312.943726,371.621643 
	C312.491608,375.850525 308.864227,376.829742 305.648682,377.645721 
	C302.533020,378.436310 299.224670,378.467560 295.986267,378.480225 
	C290.942749,373.099274 285.913940,368.070435 280.885101,363.041595 
z"/>
<path fill="#79C1DA" opacity="1.000000" stroke="none" 
	d="
M208.162704,356.458801 
	C206.409821,353.680817 205.098328,351.044342 203.259933,348.849060 
	C198.984283,343.743347 194.454681,338.850281 190.386261,333.567139 
	C199.808395,335.857300 208.839600,338.574158 217.949158,340.996399 
	C222.896851,342.311951 227.977844,343.126221 233.063141,344.494598 
	C234.733292,346.696899 236.329193,348.579773 237.946899,350.443695 
	C240.957657,353.912811 243.981140,357.370880 246.999344,360.833527 
	C233.871307,361.882690 221.122589,359.297882 208.162704,356.458801 
z"/>
<path fill="#ACA6E3" opacity="1.000000" stroke="none" 
	d="
M277.559265,190.070557 
	C279.020050,192.266891 279.687347,194.677063 281.113525,196.490402 
	C284.543976,200.852173 288.330078,204.934250 291.570312,209.555817 
	C278.446198,208.265884 265.724457,206.549286 252.937897,204.504791 
	C251.286194,202.321716 249.617355,200.529572 248.130890,198.597137 
	C245.677856,195.408188 243.342667,192.128632 240.957809,188.887268 
	C245.098221,188.597626 249.257370,187.909714 253.375046,188.103455 
	C261.299408,188.476273 269.200317,189.348099 277.559265,190.070557 
z"/>
<path fill="#83BCDC" opacity="1.000000" stroke="none" 
	d="
M292.464233,408.905762 
	C289.689087,406.077423 287.324829,403.363586 285.083099,400.552063 
	C283.350189,398.378662 281.770752,396.082916 280.525726,393.431702 
	C293.951752,393.069733 306.975159,393.117706 320.062744,393.493774 
	C324.432892,398.585938 328.738831,403.349945 333.044800,408.113983 
	C331.697906,408.409821 330.352234,408.955719 329.003937,408.962372 
	C316.978882,409.021759 304.953308,408.985962 292.464233,408.905762 
z"/>
<path fill="#93B3DF" opacity="1.000000" stroke="none" 
	d="
M92.996971,103.346306 
	C96.112114,105.500404 99.011475,108.060028 102.022758,110.480392 
	C103.624908,111.768150 105.420845,112.814804 107.555664,114.373932 
	C107.225937,121.093163 103.962761,123.291183 97.270287,124.147293 
	C89.890541,125.091316 82.004242,125.215080 75.854378,130.829071 
	C71.689415,127.066200 67.787689,123.512695 63.885960,119.959190 
	C65.254562,115.286423 68.604233,112.998642 73.174500,111.972878 
	C78.667877,110.739937 84.188431,109.536743 89.541298,107.831276 
	C90.934731,107.387321 91.747993,105.122452 92.996971,103.346306 
z"/>
<path fill="#C599E8" opacity="1.000000" stroke="none" 
	d="
M380.003601,235.832947 
	C378.868683,233.921494 377.924072,231.860092 376.560028,230.129211 
	C373.525726,226.278839 370.281525,222.593887 367.062683,218.504059 
	C379.313293,219.856155 391.456055,219.607452 403.676147,215.424408 
	C408.122345,219.894897 412.115509,223.966873 415.938232,228.370667 
	C404.363434,233.672745 392.554352,236.612854 380.003601,235.832947 
z"/>
<path fill="#45DDD1" opacity="1.000000" stroke="none" 
	d="
M49.000114,376.833160 
	C40.723057,376.888763 32.445679,377.012970 24.169060,376.974182 
	C19.215519,376.950989 17.059782,374.753937 17.020926,369.764252 
	C16.953869,361.152771 17.014481,352.540283 17.431503,343.525146 
	C20.082802,344.769836 22.378475,346.349487 24.551888,348.082489 
	C27.363499,350.324371 30.077545,352.688599 32.905846,355.427246 
	C32.978092,357.424408 32.978092,358.994476 32.978092,360.722870 
	C34.547932,360.896118 35.774109,361.031433 37.064617,361.494690 
	C39.626747,364.589050 42.244968,367.258392 44.581692,370.154816 
	C46.250248,372.223022 47.540859,374.596100 49.000114,376.833160 
z"/>
<path fill="#5FCFD5" opacity="1.000000" stroke="none" 
	d="
M88.564209,291.093170 
	C92.886780,294.779938 96.900925,298.599670 100.826027,303.072205 
	C96.362823,307.111572 92.005852,310.520660 87.609718,313.878540 
	C83.105576,317.318909 78.563080,320.709106 73.978943,323.773956 
	C70.595207,319.241364 67.269897,315.056122 63.944592,310.870850 
	C72.048325,304.322601 80.152061,297.774384 88.564209,291.093170 
z"/>
<path fill="#57D4D4" opacity="1.000000" stroke="none" 
	d="
M155.998627,408.833771 
	C149.206985,408.888794 142.400711,409.208771 135.632721,408.835175 
	C133.637421,408.725067 130.981750,407.112183 129.957932,405.395264 
	C126.898338,400.264618 124.373619,394.798065 121.873489,389.355438 
	C119.288666,383.728333 120.849182,379.590851 126.740547,377.243500 
	C131.794846,381.659729 136.314468,385.830872 140.983643,390.321350 
	C142.088455,391.482513 143.043686,392.324341 144.063202,393.494202 
	C146.625427,396.588898 149.243805,399.258301 151.580597,402.154938 
	C153.249100,404.223236 154.539505,406.596558 155.998627,408.833771 
z"/>
<path fill="#A3ABE1" opacity="1.000000" stroke="none" 
	d="
M240.495956,188.936188 
	C243.342667,192.128632 245.677856,195.408188 248.130890,198.597137 
	C249.617355,200.529572 251.286194,202.321716 252.480240,204.579391 
	C241.059036,205.599106 230.030685,206.216309 219.002335,206.833527 
	C216.005280,203.059616 213.054764,199.247269 209.986771,195.531921 
	C208.860031,194.167435 207.455368,193.032440 206.089966,191.479645 
	C217.346344,190.439392 228.690216,189.712265 240.495956,188.936188 
z"/>
<path fill="#CF93EA" opacity="1.000000" stroke="none" 
	d="
M416.108673,228.038818 
	C412.115509,223.966873 408.122345,219.894897 404.066406,215.494965 
	C413.490173,210.938950 421.383545,204.756760 427.793457,196.327423 
	C432.461121,199.992294 436.647186,203.493988 440.823456,207.334534 
	C439.498779,209.295563 438.431854,211.236984 436.825928,212.484543 
	C430.007294,217.781464 423.028778,222.872543 416.108673,228.038818 
z"/>
<path fill="#CF93EA" opacity="1.000000" stroke="none" 
	d="
M472.116852,237.042526 
	C465.751526,244.024460 459.403473,251.022263 453.002777,257.971619 
	C452.017273,259.041656 450.789886,259.888916 449.191284,260.678284 
	C444.767578,256.663940 440.826965,252.810532 437.026672,248.637421 
	C444.408966,241.197220 451.650940,234.076736 459.191956,227.117035 
	C463.699585,230.532715 467.908234,233.787628 472.116852,237.042526 
z"/>
<path fill="#8AB8DD" opacity="1.000000" stroke="none" 
	d="
M63.568474,120.095207 
	C67.787689,123.512695 71.689415,127.066200 75.798698,131.187469 
	C72.490768,137.179764 69.293411,142.852997 65.327614,147.925461 
	C63.298454,150.520844 59.893585,152.040649 57.110474,154.046585 
	C53.165150,150.194214 49.219830,146.341827 45.112885,142.190552 
	C54.597775,137.667831 57.166767,127.464622 63.568474,120.095207 
z"/>
<path fill="#83BCDC" opacity="1.000000" stroke="none" 
	d="
M247.463165,360.905884 
	C243.981140,357.370880 240.957657,353.912811 237.946899,350.443695 
	C236.329193,348.579773 234.733292,346.696899 233.526276,344.422211 
	C244.616943,344.403625 255.308914,344.785370 266.000885,345.167145 
	C268.629456,348.240356 271.259766,351.312103 273.886017,354.387299 
	C275.885590,356.728760 277.880005,359.074615 279.917358,361.766296 
	C274.749817,361.742737 269.546814,361.222656 264.332001,361.041046 
	C258.869568,360.850830 253.395798,360.985535 247.463165,360.905884 
z"/>
<path fill="#57D4D4" opacity="1.000000" stroke="none" 
	d="
M63.634811,311.016266 
	C67.269897,315.056122 70.595207,319.241364 73.851990,324.079712 
	C69.238350,329.272614 64.760574,333.882874 60.118671,338.321533 
	C57.920235,340.423706 55.407936,342.197632 52.979652,343.772980 
	C51.710785,341.880310 50.533997,340.306824 49.282146,338.795532 
	C46.884193,335.900543 44.443573,333.040924 42.020668,330.166595 
	C44.175716,328.449738 46.431305,326.843475 48.465912,324.994080 
	C53.473053,320.442810 58.378616,315.779755 63.634811,311.016266 
z"/>
<path fill="#C599E8" opacity="1.000000" stroke="none" 
	d="
M436.886353,248.957153 
	C440.826965,252.810532 444.767578,256.663940 448.876770,260.814148 
	C440.649261,267.075073 431.807312,272.165802 421.408813,274.694214 
	C419.864532,272.617645 418.845642,270.767120 417.569061,269.115845 
	C415.467957,266.397980 413.199982,263.809143 411.346619,261.001038 
	C420.089355,256.876526 428.487854,252.916824 436.886353,248.957153 
z"/>
<path fill="#8AB8DD" opacity="1.000000" stroke="none" 
	d="
M333.292114,408.051941 
	C328.738831,403.349945 324.432892,398.585938 320.459290,393.421570 
	C322.908295,392.133453 325.440704,391.713348 327.063568,390.270325 
	C331.949158,385.926147 336.480560,381.183685 341.150085,376.596527 
	C345.007843,380.235352 348.865601,383.874207 352.884949,387.812195 
	C347.068787,394.202942 341.091064,400.294495 334.806580,406.810425 
	C334.302277,407.397308 334.141785,407.590607 334.018341,407.814667 
	C333.858673,407.873108 333.699036,407.931519 333.292114,408.051941 
z"/>
<path fill="#68CAD7" opacity="1.000000" stroke="none" 
	d="
M177.894516,358.960083 
	C182.089691,362.559204 186.284851,366.158356 190.793625,369.903503 
	C188.689545,376.191711 186.323547,382.355042 183.830276,388.466431 
	C182.738480,391.142639 181.386703,393.712799 179.665009,396.601715 
	C177.791855,395.755402 176.387329,394.661499 175.025421,393.516907 
	C172.061005,391.025421 169.118332,388.508087 166.204895,385.640320 
	C170.126846,376.506226 174.010681,367.733154 177.894516,358.960083 
z"/>
<path fill="#5FCFD5" opacity="1.000000" stroke="none" 
	d="
M110.141678,330.571259 
	C114.012405,334.540314 117.883133,338.509369 121.898834,342.792297 
	C114.115845,347.475006 106.187881,351.843781 97.687103,356.155884 
	C93.397507,352.025818 89.680733,347.952393 86.120529,343.566833 
	C94.231964,339.026855 102.186821,334.799042 110.141678,330.571259 
z"/>
<path fill="#BB9EE6" opacity="1.000000" stroke="none" 
	d="
M411.002380,261.165894 
	C413.199982,263.809143 415.467957,266.397980 417.569061,269.115845 
	C418.845642,270.767120 419.864532,272.617645 421.018860,274.748718 
	C415.912201,276.650818 410.754883,278.088379 405.672150,279.753571 
	C402.998474,280.629547 400.455170,281.903503 397.482971,283.020325 
	C394.596832,281.050018 392.091278,279.043579 389.560883,277.068970 
	C387.897186,275.770691 386.197693,274.518280 384.335968,272.787811 
	C391.198914,264.023315 401.202209,262.838837 411.002380,261.165894 
z"/>
<path fill="#DB8DEC" opacity="1.000000" stroke="none" 
	d="
M472.432495,236.908600 
	C467.908234,233.787628 463.699585,230.532715 459.328430,226.798126 
	C464.095917,218.508240 469.025970,210.698074 473.955994,202.887894 
	C478.110046,206.566177 482.264099,210.244461 486.764801,213.982849 
	C483.627289,219.977814 480.199951,225.947205 476.624481,231.826508 
	C475.543335,233.604202 474.051727,235.132263 472.432495,236.908600 
z"/>
<path fill="#DB8DEC" opacity="1.000000" stroke="none" 
	d="
M440.833252,206.995697 
	C436.647186,203.493988 432.461121,199.992294 428.112854,196.192017 
	C431.978882,187.128632 438.945068,180.965881 446.633789,175.025314 
	C450.592499,178.998764 454.231262,183.106598 457.614624,187.673996 
	C450.012146,192.810242 445.605499,200.063126 440.833252,206.995697 
z"/>
<path fill="#83BCDC" opacity="1.000000" stroke="none" 
	d="
M280.782593,363.416992 
	C285.913940,368.070435 290.942749,373.099274 295.579773,378.564056 
	C293.789062,379.333527 292.399628,379.715607 290.989563,379.992462 
	C284.033569,381.358398 277.072083,382.696442 270.112518,384.044312 
	C266.434418,380.221985 262.756317,376.399658 259.019104,372.230225 
	C263.740723,366.657593 270.421753,366.342163 276.708282,364.983917 
	C278.055145,364.692963 279.357300,364.195007 280.782593,363.416992 
z"/>
<path fill="#57D4D4" opacity="1.000000" stroke="none" 
	d="
M85.963959,343.878967 
	C89.680733,347.952393 93.397507,352.025818 97.411957,356.370972 
	C89.519493,361.075226 81.329346,365.507751 72.592674,369.552185 
	C68.684822,365.068787 65.323502,360.973480 62.120918,356.564941 
	C70.174416,352.127441 78.069183,348.003204 85.963959,343.878967 
z"/>
<path fill="#4DD9D1" opacity="1.000000" stroke="none" 
	d="
M41.645638,330.207520 
	C44.443573,333.040924 46.884193,335.900543 49.282146,338.795532 
	C50.533997,340.306824 51.710785,341.880310 52.806015,344.097748 
	C47.218769,346.622528 41.786404,348.606262 36.257729,350.269958 
	C33.687359,351.043457 32.483074,352.339508 32.833603,355.000153 
	C30.077545,352.688599 27.363499,350.324371 24.551888,348.082489 
	C22.378475,346.349487 20.082802,344.769836 17.504103,343.061523 
	C17.025574,338.304413 20.865780,337.347687 24.027321,336.135223 
	C29.694174,333.961975 35.514462,332.188843 41.645638,330.207520 
z"/>
<path fill="#5FCFD5" opacity="1.000000" stroke="none" 
	d="
M166.166779,386.001312 
	C169.118332,388.508087 172.061005,391.025421 175.025421,393.516907 
	C176.387329,394.661499 177.791855,395.755402 179.504913,396.935822 
	C179.584625,397.586914 179.285553,398.158569 179.095886,398.764465 
	C176.066223,408.442780 175.326447,409.001404 165.409821,408.998901 
	C162.581345,408.998169 159.752869,408.985870 156.461517,408.906311 
	C154.539505,406.596558 153.249100,404.223236 151.580597,402.154938 
	C149.243805,399.258301 146.625427,396.588898 144.526718,393.421661 
	C148.220688,393.014130 151.561768,392.653320 154.800110,393.077301 
	C160.702347,393.850067 164.882523,392.392883 166.166779,386.001312 
z"/>
<path fill="#5FCFD5" opacity="1.000000" stroke="none" 
	d="
M140.834106,390.001984 
	C136.314468,385.830872 131.794846,381.659729 127.113869,377.189514 
	C130.159073,375.111481 133.365631,373.332581 137.020874,371.304718 
	C137.020874,367.778656 137.020874,363.847351 137.093872,359.457458 
	C139.403854,360.458588 141.776749,361.749817 143.845047,363.418518 
	C146.741364,365.755341 149.410751,368.373413 152.578049,371.381805 
	C154.348953,379.745422 151.408035,384.871613 143.606430,387.193573 
	C142.501587,387.522400 141.749481,389.036499 140.834106,390.001984 
z"/>
<path fill="#4DD9D1" opacity="1.000000" stroke="none" 
	d="
M61.962181,356.878174 
	C65.323502,360.973480 68.684822,365.068787 72.199257,369.528046 
	C65.818054,375.250488 58.527782,378.215118 49.455505,376.905975 
	C47.540859,374.596100 46.250248,372.223022 44.581692,370.154816 
	C42.244968,367.258392 39.626747,364.589050 37.527561,361.421722 
	C46.138622,360.802948 54.650772,362.323914 61.962181,356.878174 
z"/>
<path fill="#9EAEE1" opacity="1.000000" stroke="none" 
	d="
M404.424133,401.915985 
	C398.063629,400.373016 394.600281,395.954224 392.105957,389.944244 
	C397.099609,384.497925 401.986725,379.727814 407.174713,375.116760 
	C411.694031,378.866425 415.912506,382.457031 420.130981,386.047668 
	C414.997498,391.294678 409.864014,396.541687 404.424133,401.915985 
z"/>
<path fill="#A3ABE1" opacity="1.000000" stroke="none" 
	d="
M420.449890,385.908691 
	C415.912506,382.457031 411.694031,378.866425 407.348633,374.758209 
	C407.814056,372.643158 408.847412,371.065277 408.919373,369.444733 
	C409.177185,363.638092 409.109558,357.817047 409.165009,352.001434 
	C412.449036,354.840729 415.685181,357.738373 419.038116,360.493805 
	C420.620087,361.793854 422.426178,362.821259 424.482849,363.986664 
	C424.890594,367.806946 424.736725,371.630493 425.057129,375.413910 
	C425.420807,379.708435 424.111938,383.109497 420.449890,385.908691 
z"/>
<path fill="#93B3DF" opacity="1.000000" stroke="none" 
	d="
M358.629608,387.053162 
	C365.593414,393.985840 372.233612,401.081573 378.937866,408.505157 
	C373.190918,408.888153 367.379944,408.980469 361.568878,408.989136 
	C354.160248,409.000153 350.758728,403.812439 353.689514,396.844574 
	C355.067871,393.567627 356.757446,390.421570 358.629608,387.053162 
z"/>
<path fill="#83BCDC" opacity="1.000000" stroke="none" 
	d="
M334.269287,407.849152 
	C334.141785,407.590607 334.302277,407.397308 334.657166,407.129578 
	C334.716370,407.310760 334.618286,407.597198 334.269287,407.849152 
z"/>
<path fill="#000000" opacity="1.000000" stroke="none" 
	d="
M62.120918,356.564941 
	C54.650772,362.323914 46.138622,360.802948 37.463230,361.093811 
	C35.774109,361.031433 34.547932,360.896118 32.978092,360.722870 
	C32.978092,358.994476 32.978092,357.424408 32.905846,355.427246 
	C32.483074,352.339508 33.687359,351.043457 36.257729,350.269958 
	C41.786404,348.606262 47.218769,346.622528 52.864197,344.445038 
	C55.407936,342.197632 57.920235,340.423706 60.118671,338.321533 
	C64.760574,333.882874 69.238350,329.272614 73.910416,324.427002 
	C78.563080,320.709106 83.105576,317.318909 87.609718,313.878540 
	C92.005852,310.520660 96.362823,307.111572 100.887421,303.417542 
	C104.126778,300.717041 107.184456,298.282227 110.312683,295.941681 
	C114.043350,293.150360 113.397591,289.040894 112.868919,285.497650 
	C111.678642,277.520325 109.801071,269.645538 108.017647,261.363586 
	C106.878204,248.428009 106.548904,235.758530 104.574638,223.350784 
	C104.011627,219.812408 99.187378,216.047806 95.430038,214.086182 
	C82.554779,207.364410 70.379501,199.665558 59.133423,190.523529 
	C55.795784,187.810303 52.879616,184.547028 49.985394,181.341614 
	C49.238586,180.514496 49.059025,178.955353 49.041599,177.726471 
	C48.951954,171.405014 49.000042,165.081589 49.000042,158.502930 
	C51.593945,157.233902 54.186752,155.965408 56.945019,154.371750 
	C59.893585,152.040649 63.298454,150.520844 65.327614,147.925461 
	C69.293411,142.852997 72.490768,137.179764 76.061928,131.396835 
	C82.004242,125.215080 89.890541,125.091316 97.270287,124.147293 
	C103.962761,123.291183 107.225937,121.093163 107.907852,114.387848 
	C108.379753,111.500320 108.925804,109.002533 109.624138,105.808189 
	C113.174545,111.589149 116.373161,117.138069 119.942284,122.437454 
	C121.328682,124.495949 123.252556,126.788368 125.443336,127.610390 
	C137.649841,132.190536 146.824554,140.348450 154.566986,150.904678 
	C158.926880,158.400101 162.881104,165.813828 167.039749,173.111069 
	C173.132690,183.802490 179.189209,194.524780 185.708282,204.954483 
	C186.963287,206.962326 190.297272,208.833023 192.637451,208.791885 
	C201.148621,208.642212 209.645050,207.654175 218.574677,206.907898 
	C230.030685,206.216309 241.059036,205.599106 252.545044,204.907303 
	C265.724457,206.549286 278.446198,208.265884 291.585419,209.908020 
	C300.770935,212.551971 309.631927,215.007904 318.278076,218.070435 
	C325.409485,220.596451 332.286560,223.840515 339.639709,226.799866 
	C352.449768,232.375793 365.245453,236.427246 379.548462,235.908188 
	C392.554352,236.612854 404.363434,233.672745 415.938232,228.370667 
	C423.028778,222.872543 430.007294,217.781464 436.825928,212.484543 
	C438.431854,211.236984 439.498779,209.295563 440.823456,207.334534 
	C445.605499,200.063126 450.012146,192.810242 457.682007,188.003265 
	C464.549683,183.821396 471.427917,180.690948 480.395996,179.664948 
	C478.116058,187.663055 476.057098,194.885986 473.977051,202.498413 
	C469.025970,210.698074 464.095917,218.508240 459.029419,226.637329 
	C451.650940,234.076736 444.408966,241.197220 437.026672,248.637421 
	C428.487854,252.916824 420.089355,256.876526 411.346619,261.001038 
	C401.202209,262.838837 391.198914,264.023315 384.021057,272.644470 
	C380.336884,278.717346 376.789398,284.476013 373.101990,290.557861 
	C369.307190,297.330048 365.652344,303.779083 361.619232,310.732269 
	C358.920105,315.261108 355.883667,319.057098 354.501740,323.381805 
	C353.368652,326.927551 354.204498,331.102478 354.094238,335.401978 
	C355.301605,340.736206 356.643524,345.652069 357.843872,350.602264 
	C358.821716,354.634979 360.409393,358.845123 355.875671,361.952545 
	C351.098022,366.639648 346.320374,371.326752 341.346375,376.305176 
	C336.480560,381.183685 331.949158,385.926147 327.063568,390.270325 
	C325.440704,391.713348 322.908295,392.133453 320.395111,393.093445 
	C306.975159,393.117706 293.951752,393.069733 280.464722,393.094177 
	C275.416351,393.166565 270.831635,393.166565 264.440186,393.166565 
	C266.743134,389.540344 268.282257,387.116791 269.966949,384.368805 
	C277.072083,382.696442 284.033569,381.358398 290.989563,379.992462 
	C292.399628,379.715607 293.789062,379.333527 295.594482,378.916138 
	C299.224670,378.467560 302.533020,378.436310 305.648682,377.645721 
	C308.864227,376.829742 312.491608,375.850525 312.943726,371.621643 
	C313.411072,367.250183 313.044617,363.420135 308.411591,360.734009 
	C301.977264,357.003632 295.834564,352.716003 289.845886,348.289612 
	C285.544708,345.110474 280.908875,344.684814 275.907776,344.970276 
	C272.923065,345.140656 269.921478,345.014557 266.464172,345.094452 
	C255.308914,344.785370 244.616943,344.403625 233.461838,344.094238 
	C227.977844,343.126221 222.896851,342.311951 217.949158,340.996399 
	C208.839600,338.574158 199.808395,335.857300 190.371613,333.214966 
	C176.796158,326.824432 163.597122,320.474792 150.389206,314.143677 
	C145.471634,311.786438 140.950500,312.841125 136.345154,316.005920 
	C127.532738,320.773285 119.056938,325.372467 110.361404,330.271423 
	C102.186821,334.799042 94.231964,339.026855 86.120529,343.566833 
	C78.069183,348.003204 70.174416,352.127441 62.120918,356.564941 
M75.837051,147.736267 
	C75.558281,149.636719 75.332939,151.546860 74.990051,153.435669 
	C74.179153,157.902420 76.821861,161.135681 80.186066,162.296936 
	C83.239120,163.350800 87.371780,162.914978 90.503044,161.738007 
	C95.807373,159.744232 95.802483,154.404037 94.741844,150.074600 
	C94.091011,147.418015 91.297859,143.982849 88.841484,143.358948 
	C84.496086,142.255249 79.304794,141.881668 75.837051,147.736267 
z"/>
<path fill="#000000" opacity="1.000000" stroke="none" 
	d="
M140.983658,390.321350 
	C141.749481,389.036499 142.501587,387.522400 143.606430,387.193573 
	C151.408035,384.871613 154.348953,379.745422 152.906006,371.445953 
	C152.890762,359.344971 152.948395,347.690521 153.024414,335.575012 
	C162.589310,339.603333 172.135803,344.092651 181.948975,348.707397 
	C180.504608,352.184570 179.251846,355.200439 177.946808,358.588196 
	C174.010681,367.733154 170.126846,376.506226 166.204895,385.640320 
	C164.882523,392.392883 160.702347,393.850067 154.800110,393.077301 
	C151.561768,392.653320 148.220688,393.014130 144.462433,393.093628 
	C143.043686,392.324341 142.088455,391.482513 140.983658,390.321350 
z"/>
<path fill="#000000" opacity="1.000000" stroke="none" 
	d="
M409.092926,351.553772 
	C409.109558,357.817047 409.177185,363.638092 408.919373,369.444733 
	C408.847412,371.065277 407.814056,372.643158 407.047791,374.599182 
	C401.986725,379.727814 397.099609,384.497925 392.085388,389.574280 
	C387.252045,395.304871 381.014801,392.079437 374.610626,393.285400 
	C376.295959,389.640137 377.650696,386.709900 379.378479,383.249573 
	C380.912720,380.247742 382.029877,377.754120 383.243744,375.308502 
	C386.355072,369.040070 385.655334,365.448273 381.022217,360.400238 
	C378.720947,357.892914 377.065155,354.793213 375.064819,351.549133 
	C374.425507,348.621368 373.888336,346.093079 373.242584,343.592865 
	C371.335297,336.208252 368.478638,328.768372 374.832336,321.997009 
	C377.554260,317.432831 380.276184,312.868652 383.344025,307.724396 
	C386.526215,315.858795 389.633362,323.324646 392.350159,330.929932 
	C393.909454,335.294922 397.359100,337.328217 401.170349,338.495911 
	C407.712830,340.500427 410.337006,344.451843 409.092926,351.553772 
z"/>
<path fill="#A3ABE1" opacity="1.000000" stroke="none" 
	d="
M374.504425,321.933777 
	C368.478638,328.768372 371.335297,336.208252 373.242584,343.592865 
	C373.888336,346.093079 374.425507,348.621368 374.695038,351.546936 
	C372.502899,350.722260 370.461060,349.678955 368.784576,348.216705 
	C363.834717,343.899506 359.029449,339.416595 354.167603,334.998505 
	C354.204498,331.102478 353.368652,326.927551 354.501740,323.381805 
	C355.883667,319.057098 358.920105,315.261108 361.562561,311.097900 
	C365.981598,314.596375 370.079041,318.233459 374.504425,321.933777 
z"/>
<path fill="#9EAEE1" opacity="1.000000" stroke="none" 
	d="
M354.094238,335.401978 
	C359.029449,339.416595 363.834717,343.899506 368.784576,348.216705 
	C370.461060,349.678955 372.502899,350.722260 374.747559,351.959259 
	C377.065155,354.793213 378.720947,357.892914 381.022217,360.400238 
	C385.655334,365.448273 386.355072,369.040070 383.243744,375.308502 
	C382.029877,377.754120 380.912720,380.247742 379.433594,382.880310 
	C373.149017,377.265869 367.208618,371.463135 361.196472,365.735687 
	C359.778534,364.384949 358.118927,363.287842 356.223083,362.013306 
	C360.409393,358.845123 358.821716,354.634979 357.843872,350.602264 
	C356.643524,345.652069 355.301605,340.736206 354.094238,335.401978 
z"/>
<path fill="#000000" opacity="1.000000" stroke="none" 
	d="
M358.541870,384.463654 
	C358.810608,383.920837 359.253815,383.585968 359.697021,383.251129 
	C359.676147,383.785767 359.655273,384.320435 359.358765,384.963501 
	C358.960876,384.938507 358.838623,384.805084 358.541870,384.463654 
z"/>
<path fill="#8AB8DD" opacity="1.000000" stroke="none" 
	d="
M76.099678,147.414383 
	C79.304794,141.881668 84.496086,142.255249 88.841484,143.358948 
	C91.297859,143.982849 94.091011,147.418015 94.741844,150.074600 
	C95.802483,154.404037 95.807373,159.744232 90.503044,161.738007 
	C87.371780,162.914978 83.239120,163.350800 80.186066,162.296936 
	C76.821861,161.135681 74.179153,157.902420 74.990051,153.435669 
	C75.332939,151.546860 75.558281,149.636719 76.099678,147.414383 
z"/>
</svg>